<?xml version="1.0" encoding="utf-8"?>
<!-- Generator: Adobe Illustrator 23.0.1, SVG Export Plug-In . SVG Version: 6.00 Build 0)  -->
<svg version="1.1" id="Layer_1" xmlns="http://www.w3.org/2000/svg" xmlns:xlink="http://www.w3.org/1999/xlink" x="0px" y="0px"
	 viewBox="0 0 143.78 71.68" style="enable-background:new 0 0 143.78 71.68;" xml:space="preserve">
<style type="text/css">
	.st0{fill:#1F2447;}
	.st1{fill:#FF5C75;}
	.st2{fill:#009EDD;}
	.st3{fill:#6BE1E7;}
	.st4{fill:#FFFFFF;}
</style>
<g>
	<g>
		<path class="st0" d="M5.42,67.23H3.08v4.21H0V57.41h5.72c3.34,0,5.36,1.99,5.36,4.85v0.04C11.08,65.55,8.56,67.23,5.42,67.23z
			 M7.96,62.32c0-1.38-0.96-2.12-2.5-2.12H3.08v4.29h2.44c1.54,0,2.44-0.92,2.44-2.12V62.32z"/>
		<path class="st0" d="M22.38,71.43l-1.28-3.15h-5.92l-1.28,3.15h-3.14l6-14.13h2.84l6,14.13H22.38z M18.14,61.02l-1.86,4.55H20
			L18.14,61.02z"/>
		<path class="st0" d="M32.59,65.84v5.59h-3.08V65.9l-5.38-8.49h3.6l3.34,5.63l3.4-5.63h3.5L32.59,65.84z"/>
		<path class="st0" d="M42.15,71.64c-2.1,0-3.44-1.04-4.32-2.49l1.14-0.98c0.86,1.3,1.74,2,3.2,2c1.58,0,2.74-1.14,2.74-3.36v-9.4
			h1.6v9.38C46.51,70.01,44.65,71.64,42.15,71.64z"/>
		<path class="st0" d="M61.7,65.44c0,4.09-2.34,6.21-5.84,6.21c-3.46,0-5.82-2.12-5.82-6.09v-8.16h1.58v8.06
			c0,3.03,1.6,4.73,4.28,4.73c2.58,0,4.22-1.56,4.22-4.63v-8.16h1.58V65.44z"/>
		<path class="st0" d="M70.46,63.66c3.12,0.68,4.56,1.83,4.56,3.99c0,2.42-2,3.99-4.78,3.99c-2.22,0-4.04-0.74-5.72-2.24l0.98-1.16
			c1.46,1.32,2.86,1.98,4.8,1.98c1.88,0,3.12-0.98,3.12-2.4c0-1.32-0.7-2.07-3.64-2.68c-3.22-0.7-4.7-1.74-4.7-4.07
			c0-2.25,1.94-3.85,4.6-3.85c2.04,0,3.5,0.58,4.92,1.72l-0.92,1.22c-1.3-1.06-2.6-1.52-4.04-1.52c-1.82,0-2.98,1-2.98,2.29
			C66.66,62.26,67.38,63,70.46,63.66z"/>
		<path class="st0" d="M83.24,71.43h-1.6V58.87h-4.7v-1.46h11v1.46h-4.7V71.43z"/>
		<path class="st0" d="M101.43,71.43l-6.78-8.92v8.92H91.6V57.41h2.84l6.56,8.64v-8.64h3.04v14.02H101.43z"/>
		<path class="st0" d="M114.21,71.68c-4.32,0-7.42-3.22-7.42-7.22v-0.04c0-3.99,3.14-7.25,7.46-7.25c4.32,0,7.42,3.22,7.42,7.21
			v0.04C121.67,68.41,118.53,71.68,114.21,71.68z M118.45,64.42c0-2.41-1.76-4.41-4.24-4.41c-2.48,0-4.2,1.96-4.2,4.37v0.04
			c0,2.41,1.76,4.41,4.24,4.41c2.48,0,4.2-1.96,4.2-4.37L118.45,64.42L118.45,64.42z"/>
		<path class="st0" d="M139,71.54h-2.68l-3.16-9.18L130,71.54h-2.68l-4.78-14.13h3.3l2.9,9.5l3.14-9.54h2.64l3.14,9.54l2.9-9.5h3.22
			L139,71.54z"/>
	</g>
	<g>
		<path class="st1" d="M122.03,36.18l-5.43,3.56c-7.14-10.94-18.1-18.44-30.87-21.12c-12.77-2.68-25.82-0.22-36.74,6.93
			c-9.06,5.94-15.76,14.51-19.3,24.57h-6.84c3.78-12.33,11.68-22.86,22.59-30.01c12.37-8.1,27.15-10.89,41.62-7.85
			C101.52,15.29,113.94,23.78,122.03,36.18z"/>
		<path class="st2" d="M89.32,1.44l-1.34,6.39c-15.65-3.28-31.64-0.27-45.02,8.5c-12.2,7.99-20.91,19.88-24.83,33.79h-6.75
			c4.1-16.2,13.96-30.06,28.01-39.26C54.23,1.14,71.96-2.21,89.32,1.44z"/>
		<path class="st3" d="M36.94,7.11C21.63,17.13,10.97,32.35,6.78,50.11H0.12C4.45,30.08,16.25,12.89,33.39,1.67L36.94,7.11z"/>
	</g>
</g>
</svg>
